<svg width="96" height="34" viewBox="0 0 96 34" fill="none" xmlns="http://www.w3.org/2000/svg">
<g opacity="0.3" filter="url(#filter0_dd_15_331)">
<path d="M4 0H42.7917L53 13L42.7917 26H4V0Z" fill="white"/>
<path fill-rule="evenodd" clip-rule="evenodd" d="M21.3145 11.5273C21.3739 11.576 21.4337 11.625 21.4943 11.6741C21.5345 11.6494 21.5593 11.6156 21.5827 11.5837C21.5881 11.5763 21.5935 11.5689 21.599 11.5619C21.8112 11.3069 22.022 11.0505 22.2328 10.7942L22.2329 10.794C22.656 10.2825 23.0777 9.77109 23.4994 9.25826C23.5835 9.15569 23.5808 9.10857 23.4843 9.02541C23.4085 8.95888 23.3313 8.89373 23.2528 8.82859C22.583 8.27417 21.8471 7.84173 21.0133 7.59086C20.4565 7.42453 19.8874 7.33305 19.3085 7.29286C18.5533 7.24158 17.805 7.26652 17.0636 7.43978C14.4671 8.04409 12.5295 10.2174 12.3021 13.0033C12.2415 13.7546 12.2993 14.4989 12.4895 15.2293C12.9223 16.8829 13.8621 18.1497 15.3547 18.9841C16.1678 19.4387 17.0484 19.6785 17.9745 19.7533C18.7587 19.8171 19.5346 19.7686 20.3008 19.5939C21.5962 19.2987 22.7415 18.7027 23.7599 17.8503C23.8412 17.7824 23.8743 17.7145 23.8743 17.6064C23.871 16.2803 23.8712 14.9533 23.8714 13.6268C23.8715 13.2951 23.8715 12.9635 23.8715 12.6319C23.8715 12.6146 23.8703 12.5971 23.8691 12.5797C23.8665 12.5409 23.8639 12.5023 23.8743 12.4669C23.8864 12.4259 23.8645 12.4024 23.8432 12.3794C23.8256 12.3605 23.8084 12.342 23.8109 12.3145C23.8164 12.2687 23.7861 12.2618 23.7503 12.2618H23.6538H18.2804C18.2699 12.2618 18.2593 12.2621 18.2485 12.2624C18.227 12.263 18.2052 12.2637 18.184 12.2618C18.1289 12.2563 18.1109 12.284 18.1151 12.3353C18.1169 12.3566 18.1163 12.3785 18.1157 12.4002C18.1154 12.411 18.1151 12.4217 18.1151 12.4323C18.1151 12.7234 18.1149 13.0144 18.1148 13.3055C18.1145 13.8876 18.1142 14.4698 18.1151 15.0519C18.1151 15.1482 18.1081 15.1908 18.126 15.2093C18.1436 15.2275 18.1854 15.2224 18.2818 15.2224H20.4455C20.5407 15.2224 20.5818 15.2173 20.5993 15.2353C20.6173 15.2538 20.6102 15.2966 20.6109 15.3942C20.6118 15.5208 20.6115 15.6467 20.6112 15.7728C20.611 15.836 20.6109 15.8992 20.6109 15.9625V15.9671C20.6109 16.2273 20.6109 16.2293 20.378 16.3423C19.6958 16.6722 18.975 16.7664 18.2308 16.6722C17.404 16.5682 16.7424 16.1732 16.2573 15.4899C15.9418 15.045 15.7695 14.5432 15.7047 14.0027C15.6234 13.3124 15.7061 12.6485 16.0162 12.022C16.3896 11.2694 16.9547 10.7288 17.7664 10.4807C18.3356 10.3061 18.9116 10.3518 19.4822 10.478C19.999 10.5916 20.4496 10.8467 20.8645 11.1668C21.0165 11.283 21.1643 11.4042 21.3145 11.5273ZM36.6218 9.01292C35.347 7.84033 33.8283 7.28176 32.2586 7.26929C31.5337 7.27067 30.9921 7.33027 30.4174 7.48135C28.7499 7.92072 27.4448 8.86323 26.5779 10.3685C25.6877 11.9125 25.5071 13.5688 26.0046 15.2723C26.5614 17.1767 27.748 18.5627 29.5837 19.3347C30.9935 19.9266 32.4543 20.0056 33.9275 19.6147C35.6392 19.1615 36.9511 18.1594 37.8111 16.5959C38.536 15.2778 38.7303 13.864 38.4602 12.3879C38.2177 11.0615 37.6113 9.92493 36.6218 9.01292ZM29.5823 11.9901C30.1377 10.9548 31.0252 10.4586 31.8865 10.4392C33.634 10.435 34.7765 11.4288 35.0879 12.8065C35.2767 13.6367 35.1927 14.4434 34.7889 15.1974C34.3134 16.0831 33.572 16.5987 32.5742 16.7137C31.6095 16.826 30.7675 16.5502 30.0798 15.8489C29.6388 15.3998 29.3728 14.8523 29.2598 14.2341C29.1165 13.451 29.2047 12.6928 29.5823 11.9901Z" fill="#010101"/>
<rect x="53" width="39" height="26" fill="white"/>
<path d="M77.538 7.27081C79.1683 7.27081 80.7987 7.27081 82.4304 7.27081C82.6192 7.27081 82.5985 7.24863 82.5985 7.44129C82.5985 8.36024 82.5985 9.27918 82.5985 10.1995C82.5985 10.2134 82.5985 10.2272 82.5985 10.2411C82.5971 10.3755 82.5971 10.3755 82.4621 10.3755C81.4188 10.3755 80.377 10.3755 79.3337 10.3755C79.1477 10.3755 79.1697 10.3603 79.1697 10.5363C79.1697 13.4276 79.1697 16.3202 79.1697 19.2115C79.1697 19.3917 79.1697 19.3917 78.9864 19.3917C78.0176 19.3917 77.0488 19.3917 76.0785 19.3917C76.0648 19.3917 76.051 19.3917 76.0372 19.3917C75.8704 19.3917 75.8897 19.4028 75.8897 19.2434C75.8897 16.3521 75.8897 13.4595 75.8897 10.5682C75.8897 10.3741 75.8897 10.3741 75.6913 10.3741C74.6673 10.3741 73.6434 10.3741 72.618 10.3741C72.4568 10.3741 72.4678 10.3894 72.4678 10.2272C72.4678 9.28888 72.4678 8.35192 72.4678 7.41357C72.4678 7.39001 72.4692 7.36783 72.4678 7.34427C72.4637 7.29299 72.483 7.26665 72.5381 7.26942C72.5753 7.27081 72.6112 7.26942 72.6484 7.26942C74.2773 7.27081 75.9077 7.27081 77.538 7.27081Z" fill="#010101"/>
<path d="M66.0939 13.3232C66.0939 11.3606 66.0939 9.39658 66.0939 7.43396C66.0939 7.24823 66.0719 7.2704 66.2524 7.2704C67.2392 7.26902 68.2273 7.2704 69.214 7.2704C69.2375 7.2704 69.2609 7.27318 69.2829 7.2704C69.3574 7.26209 69.3808 7.29813 69.3739 7.36743C69.3711 7.39515 69.3739 7.42287 69.3739 7.45059C69.3739 11.3717 69.3739 15.2942 69.3739 19.2153C69.3739 19.4149 69.4028 19.3927 69.2003 19.3927C68.2218 19.3941 67.2433 19.3927 66.2662 19.3927C66.2386 19.3927 66.2111 19.3899 66.1835 19.3927C66.1063 19.4038 66.0884 19.3636 66.0939 19.2957C66.0967 19.2596 66.0939 19.2222 66.0939 19.1848C66.0939 17.2305 66.0939 15.2762 66.0939 13.3232Z" fill="#010101"/>
</g>
<defs>
<filter id="filter0_dd_15_331" x="0" y="0" width="96" height="34" filterUnits="userSpaceOnUse" color-interpolation-filters="sRGB">
<feFlood flood-opacity="0" result="BackgroundImageFix"/>
<feColorMatrix in="SourceAlpha" type="matrix" values="0 0 0 0 0 0 0 0 0 0 0 0 0 0 0 0 0 0 127 0" result="hardAlpha"/>
<feOffset dy="4"/>
<feGaussianBlur stdDeviation="2"/>
<feComposite in2="hardAlpha" operator="out"/>
<feColorMatrix type="matrix" values="0 0 0 0 0 0 0 0 0 0 0 0 0 0 0 0 0 0 0.25 0"/>
<feBlend mode="normal" in2="BackgroundImageFix" result="effect1_dropShadow_15_331"/>
<feColorMatrix in="SourceAlpha" type="matrix" values="0 0 0 0 0 0 0 0 0 0 0 0 0 0 0 0 0 0 127 0" result="hardAlpha"/>
<feOffset dy="4"/>
<feGaussianBlur stdDeviation="2"/>
<feComposite in2="hardAlpha" operator="out"/>
<feColorMatrix type="matrix" values="0 0 0 0 0 0 0 0 0 0 0 0 0 0 0 0 0 0 0.25 0"/>
<feBlend mode="normal" in2="effect1_dropShadow_15_331" result="effect2_dropShadow_15_331"/>
<feBlend mode="normal" in="SourceGraphic" in2="effect2_dropShadow_15_331" result="shape"/>
</filter>
</defs>
</svg>
